<svg width="24" height="24" viewBox="0 0 24 24" fill="none" xmlns="http://www.w3.org/2000/svg">
<path d="M12 2C6.48 2 2 6.48 2 12C2 17.52 6.48 22 12 22C17.52 22 22 17.52 22 12C22 6.48 17.52 2 12 2ZM12 20C7.58 20 4 16.42 4 12C4 10.15 4.63 8.45 5.69 7.1L16.9 18.31C15.55 19.37 13.85 20 12 20ZM18.31 16.9L7.1 5.69C8.45 4.63 10.15 4 12 4C16.42 4 20 7.58 20 12C20 13.85 19.37 15.55 18.31 16.9Z" fill="url(#paint0_linear_239_8192)"/>
<defs>
<linearGradient id="paint0_linear_239_8192" x1="26.8072" y1="4.85712" x2="-2.35913" y2="5.18096" gradientUnits="userSpaceOnUse">
<stop stop-color="#ED2A3A"/>
<stop offset="1" stop-color="#F7983B"/>
</linearGradient>
</defs>
</svg>
