<svg width="31" height="33" viewBox="0 0 31 33" fill="none" xmlns="http://www.w3.org/2000/svg">
<path d="M16.4752 32.0831C16.246 32.0808 16.0169 32.0763 15.7876 32.0766C15.2866 32.0774 14.7854 32.0808 14.2842 32.0831C14.0588 32.0712 13.8329 32.0712 13.6075 32.0831C13.565 32.0744 13.5212 32.0744 13.4787 32.0831C13.4488 32.0618 13.4451 32.0301 13.4448 31.9974C13.4448 31.9383 13.4448 31.8793 13.4448 31.8202C13.4448 28.0288 13.4448 24.2378 13.4448 20.4472C13.4448 20.2207 13.4149 20.2377 13.6488 20.2377C14.8517 20.2377 16.0546 20.2377 17.2576 20.2377C17.3209 20.2377 17.3864 20.2518 17.4478 20.2216C17.4746 20.2224 17.5013 20.2252 17.5284 20.2242C18.2614 20.195 18.9469 19.994 19.5733 19.6173C20.8875 18.8279 21.6474 17.6636 21.8127 16.1397C21.9094 15.2499 21.7987 14.3693 21.5045 13.521C20.8574 11.656 19.6282 10.3259 17.8169 9.53092C17.3942 9.34517 16.9542 9.20726 16.4959 9.13653C16.4837 9.12779 16.4697 9.12194 16.455 9.11943C16.4403 9.11692 16.4251 9.11781 16.4108 9.12203C16.4012 9.11538 16.3903 9.11079 16.3789 9.10857C16.3674 9.10636 16.3556 9.10655 16.3443 9.10915C16.2927 9.09303 16.2411 9.07612 16.1857 9.08288L16.1193 9.07531C16.0565 9.0592 15.9935 9.04502 15.928 9.05276C15.8973 9.03815 15.8625 9.03467 15.8295 9.04293C15.691 9.02682 15.5527 9.00298 15.4123 9.02021C15.3271 9.00462 15.2398 9.00408 15.1545 9.0186C15.0034 9.0033 14.854 9.02038 14.705 9.04245L14.6386 9.04615C14.288 9.06967 13.9426 9.12203 13.6075 9.23142C13.4993 9.24302 13.3942 9.2651 13.2992 9.32197H13.2863C13.2208 9.32421 13.1576 9.34635 13.105 9.38544H13.0933C13.0045 9.39962 12.9188 9.42217 12.8471 9.48098C12.6357 9.52931 12.4493 9.63757 12.2584 9.73343C11.6343 10.0469 11.0824 10.4613 10.5865 10.9509C10.5612 10.9783 10.5376 11.0072 10.5156 11.0373C10.5038 11.0409 10.4935 11.048 10.4858 11.0576C10.4782 11.0672 10.4737 11.079 10.4729 11.0912L10.4756 11.0891C10.4668 11.0899 10.4585 11.0936 10.4521 11.0999C10.4458 11.1061 10.4419 11.1143 10.441 11.1231L10.4432 11.1209C10.4344 11.122 10.4262 11.1262 10.4201 11.1327C10.4139 11.1392 10.4102 11.1476 10.4096 11.1565L10.4122 11.1542C10.4036 11.1558 10.3957 11.1601 10.3899 11.1666C10.3841 11.1731 10.3805 11.1813 10.3799 11.19L10.3815 11.1884C10.3731 11.1898 10.3653 11.1941 10.3595 11.2004C10.3537 11.2067 10.3501 11.2148 10.3493 11.2233V11.2222C10.3409 11.223 10.333 11.2268 10.3271 11.2329C10.3212 11.239 10.3177 11.247 10.3171 11.2554C10.2821 11.2762 10.2527 11.3015 10.2452 11.3443L10.2475 11.3456C10.2387 11.3464 10.2305 11.3504 10.2244 11.3568C10.2183 11.3632 10.2147 11.3716 10.2143 11.3804L10.213 11.3788C10.205 11.3801 10.1978 11.3843 10.1926 11.3905C10.1874 11.3967 10.1846 11.4045 10.1847 11.4126H10.1868C10.178 11.4142 10.1701 11.4186 10.1642 11.4253C10.1584 11.4319 10.155 11.4404 10.1545 11.4492V11.4479C10.0872 11.5001 10.0342 11.5684 10.0002 11.6466L9.99827 11.6493C9.92216 11.7169 9.86305 11.8014 9.82572 11.8961L9.8283 11.895C9.81955 11.8967 9.81171 11.9015 9.80626 11.9086C9.8008 11.9156 9.7981 11.9244 9.79866 11.9333L9.79978 11.9309C9.78572 11.9369 9.77353 11.9466 9.76451 11.9589C9.7555 11.9712 9.74998 11.9858 9.74855 12.001C9.74404 12.0029 9.74037 12.0064 9.73821 12.0108C9.73605 12.0152 9.73555 12.0203 9.73679 12.025C9.72536 12.032 9.71575 12.0415 9.70875 12.0529C9.70175 12.0643 9.69755 12.0772 9.69652 12.0906V12.088C9.68284 12.0954 9.67116 12.106 9.66247 12.1189C9.65377 12.1318 9.64832 12.1467 9.64657 12.1621L9.63836 12.1674V12.1774C9.62075 12.1906 9.60597 12.2073 9.5949 12.2263C9.58383 12.2453 9.5767 12.2664 9.57391 12.2883L9.5752 12.2868C9.52768 12.3308 9.49512 12.3886 9.48208 12.4521L9.47532 12.4577L9.47806 12.4661C9.46886 12.4707 9.46114 12.4777 9.45578 12.4865C9.45042 12.4952 9.44764 12.5053 9.44777 12.5156V12.5145C9.42022 12.5278 9.41474 12.5525 9.41555 12.5797C9.36625 12.6232 9.34546 12.682 9.32839 12.7427C9.32417 12.7451 9.3209 12.7488 9.31914 12.7532C9.31737 12.7577 9.31722 12.7627 9.31872 12.7672C9.27136 12.8249 9.24007 12.894 9.22802 12.9676C9.22616 12.9683 9.22447 12.9694 9.22309 12.9708C9.22171 12.9722 9.22068 12.9739 9.22006 12.9758C9.21943 12.9777 9.21925 12.9797 9.21951 12.9817C9.21978 12.9836 9.22048 12.9855 9.22157 12.9871C9.21367 12.9913 9.20716 12.9978 9.20284 13.0056C9.19852 13.0134 9.19658 13.0224 9.19725 13.0313C9.01455 13.4221 8.89727 13.8342 8.80866 14.2546C8.71199 14.7128 8.6722 15.1764 8.67236 15.6451C8.67419 21.0125 8.67451 26.3799 8.67333 31.7472C8.67333 32.0283 8.69733 31.9851 8.43247 31.9855C6.68275 31.9871 4.93297 31.9874 3.18314 31.9866C3.11371 31.9866 3.04411 31.9921 2.97467 31.995C2.69193 31.9734 2.4087 31.9887 2.12564 31.9871C1.48975 31.9835 0.853703 31.9861 0.217655 31.9858C0.148379 31.9858 0.0789426 31.9822 0.00950571 31.9803C0.00628358 31.9592 0.00322213 31.9381 0 31.917C0.00306102 31.8476 0.00886066 31.7781 0.00886066 31.7087C0.00886066 26.3522 0.00886066 20.9957 0.00886066 15.6393C0.00886066 15.5858 0.00451122 15.5323 0.00225573 15.4782C0.0158223 15.3076 0.0184589 15.1363 0.0101498 14.9654C0.0262604 14.8785 0.0423715 14.7917 0.0277108 14.7029C0.0460317 14.5983 0.0514424 14.4919 0.0438215 14.386C0.0472047 14.3839 0.0533262 14.382 0.0533262 14.3801C0.0527161 14.3734 0.0514757 14.3668 0.0496211 14.3604C0.0724982 14.3052 0.0724982 14.2476 0.0657317 14.1893C0.0802198 14.1376 0.0834604 14.0834 0.0752364 14.0303C0.0869972 14.0044 0.0939249 13.9783 0.0773309 13.9515C0.118574 13.8855 0.109552 13.8123 0.107458 13.7403C0.112861 13.7335 0.116025 13.7252 0.116516 13.7166C0.117007 13.7079 0.114799 13.6993 0.110197 13.692C0.145318 13.6372 0.142419 13.5765 0.137424 13.5148C0.148863 13.4887 0.15579 13.4624 0.142257 13.4342C0.17899 13.3789 0.176411 13.3172 0.173028 13.2552C0.187561 13.2275 0.193613 13.1961 0.190428 13.165C0.19666 13.1546 0.200651 13.1429 0.202149 13.1309C0.203647 13.1188 0.202617 13.1066 0.199127 13.0949C0.20695 13.0832 0.211763 13.0697 0.21314 13.0556C0.214516 13.0416 0.212415 13.0274 0.207021 13.0144C0.246654 12.9598 0.241016 12.8961 0.242949 12.8341L0.239727 12.8236C0.27372 12.7914 0.271948 12.7495 0.267759 12.7078C0.28097 12.6833 0.293213 12.6594 0.273558 12.6316C0.302397 12.6093 0.303364 12.5789 0.299336 12.5467C0.302955 12.5436 0.305293 12.5393 0.305889 12.5346C0.306485 12.5299 0.305297 12.5251 0.302558 12.5212C0.33478 12.4809 0.335585 12.4341 0.331396 12.3861C0.335186 12.383 0.33767 12.3787 0.338329 12.3739C0.338989 12.3691 0.337775 12.3642 0.33494 12.3603C0.368611 12.3202 0.368773 12.2726 0.365068 12.2243C0.371057 12.2186 0.374818 12.211 0.375675 12.2028C0.376531 12.1946 0.374426 12.1863 0.36974 12.1795C0.399544 12.1582 0.401961 12.1276 0.397289 12.0953C0.402746 12.0888 0.406029 12.0809 0.406666 12.0725C0.407303 12.0641 0.405261 12.0557 0.400833 12.0485C0.433054 12.0163 0.434665 11.9749 0.433054 11.933V11.92C0.467048 11.8877 0.465276 11.8454 0.465276 11.804V11.795C0.493469 11.773 0.49508 11.7432 0.491052 11.7118C0.49363 11.701 0.496047 11.6904 0.498625 11.6796C0.503284 11.6768 0.506942 11.6726 0.509081 11.6676C0.511221 11.6626 0.511733 11.657 0.510546 11.6517C0.52178 11.6353 0.529447 11.6167 0.533054 11.5971C0.536661 11.5775 0.536128 11.5574 0.53149 11.538C0.560811 11.5162 0.561134 11.4855 0.557912 11.4532C0.564234 11.448 0.568321 11.4406 0.569339 11.4324C0.570357 11.4243 0.568229 11.4161 0.56339 11.4094C0.572869 11.4046 0.580513 11.3969 0.585143 11.3873C0.589772 11.3778 0.59113 11.367 0.589005 11.3566C0.613977 11.31 0.632343 11.2618 0.627026 11.2077C0.637929 11.1985 0.646212 11.1865 0.651047 11.1731C0.655881 11.1596 0.657098 11.1451 0.654576 11.131C0.660775 11.1257 0.664801 11.1182 0.665899 11.1101C0.666996 11.102 0.665089 11.0937 0.660537 11.0869C0.669147 11.0817 0.675944 11.074 0.679986 11.0649C0.684027 11.0557 0.685113 11.0455 0.683092 11.0357C0.705808 11.0062 0.693241 10.9744 0.689053 10.9432C0.706774 10.9371 0.721274 10.9285 0.721274 10.9066C0.731464 10.8997 0.739296 10.8898 0.743728 10.8783C0.74816 10.8667 0.748982 10.8542 0.746084 10.8422C0.74834 10.8317 0.750595 10.8212 0.753012 10.8099C0.782977 10.7711 0.806016 10.731 0.780722 10.6803C0.821966 10.6123 0.856764 10.542 0.850642 10.4591C0.91299 10.4351 0.914118 10.3801 0.917984 10.3265L0.916535 10.3284C0.927281 10.3215 0.93539 10.3111 0.939566 10.299C0.943743 10.2869 0.943745 10.2738 0.939573 10.2617C0.948273 10.2217 0.949078 10.1792 0.976789 10.1454C1.014 10.1053 1.04542 10.0624 1.04043 10.0031L1.04188 10.0004C1.0741 9.97654 1.07796 9.94319 1.07216 9.90694C1.07216 9.89438 1.07297 9.88197 1.07329 9.86941C1.07497 9.86876 1.0765 9.86776 1.07776 9.86647C1.07902 9.86518 1.07999 9.86364 1.0806 9.86194C1.08121 9.86024 1.08145 9.85843 1.0813 9.85664C1.08115 9.85484 1.08062 9.8531 1.07974 9.85152L1.11083 9.8214C1.14434 9.78031 1.16915 9.73585 1.16818 9.68059C1.16979 9.67028 1.17141 9.65997 1.17318 9.64966C1.19074 9.63129 1.21071 9.61405 1.20395 9.58425C1.2071 9.58176 1.20922 9.57819 1.20987 9.57422C1.21053 9.57026 1.20968 9.56619 1.20749 9.56282C1.25691 9.50551 1.28869 9.43512 1.299 9.36015C1.30222 9.35702 1.3044 9.35298 1.30527 9.34858C1.30613 9.34418 1.30563 9.33961 1.30383 9.3355C1.32156 9.32761 1.33412 9.31649 1.33042 9.29458C1.33351 9.2914 1.33561 9.2874 1.33647 9.28305C1.33733 9.2787 1.3369 9.2742 1.33525 9.27009C1.35136 9.26204 1.36377 9.25124 1.35974 9.23046C1.35974 9.21644 1.36103 9.20243 1.36183 9.18841C1.41162 9.16424 1.4295 9.12187 1.42885 9.06919C1.43194 9.06631 1.43399 9.06248 1.43466 9.05831C1.43533 9.05414 1.43459 9.04986 1.43256 9.04615C1.45044 9.0381 1.46478 9.0273 1.46059 9.00475C1.59834 8.73586 1.73866 8.46842 1.87302 8.19793C1.98586 7.97039 2.11223 7.74981 2.25146 7.53739C2.49812 7.16088 2.73865 6.78019 3.00383 6.41593C3.50773 5.72717 4.06344 5.07785 4.66613 4.47363C4.69609 4.44334 4.72348 4.41047 4.75216 4.37874C4.79098 4.35264 4.83191 4.32847 4.85011 4.28207C5.00977 4.16301 5.14655 4.01883 5.28864 3.88043C6.47261 2.85016 7.76469 1.98711 9.19709 1.3393C9.23994 1.31997 9.29037 1.31288 9.3221 1.27212C9.61081 1.15822 9.89758 1.03964 10.1884 0.931541C11.0168 0.621911 11.8718 0.388521 12.7427 0.234273C12.7738 0.226941 12.8043 0.217632 12.8342 0.206401C12.8826 0.202857 12.9309 0.203018 12.9781 0.195124C13.8887 0.0447638 14.8115 -0.0189434 15.7341 0.00485713C15.9056 0.00888479 16.077 0.00952894 16.2486 0.0116233H16.2566C16.288 0.0167787 16.3191 0.0243506 16.3507 0.0266061C16.7444 0.0552831 17.1374 0.0918541 17.529 0.143247C17.6819 0.163385 17.8324 0.20334 17.988 0.204307C18.1868 0.244906 18.3855 0.285451 18.5841 0.325942C19.2195 0.455523 19.846 0.625184 20.4599 0.83391C20.698 0.914464 20.9347 0.998723 21.172 1.08137C21.3089 1.16563 21.4641 1.208 21.6105 1.27051C22.4039 1.60949 23.1695 2.01026 23.9001 2.46914C23.9361 2.49153 23.9673 2.52311 24.0129 2.52875H24.0139C24.0557 2.57543 24.1096 2.6098 24.1695 2.62815L24.1716 2.62993C24.225 2.68677 24.2905 2.73083 24.3633 2.75881V2.75688C24.3665 2.77718 24.3819 2.78491 24.3991 2.79071C24.3995 2.79477 24.4007 2.79871 24.4027 2.80225C24.4048 2.8058 24.4075 2.80886 24.4108 2.81125C24.4142 2.81363 24.4179 2.81527 24.4219 2.81607C24.426 2.81686 24.4301 2.81678 24.4341 2.81584C24.4502 2.83518 24.4677 2.85241 24.4954 2.85241C24.5291 2.89514 24.5745 2.92715 24.6261 2.94457L24.6301 2.94763C24.6329 2.96229 24.6403 2.97099 24.6567 2.96857C24.6588 2.97345 24.6624 2.97752 24.6671 2.98013C24.6717 2.98275 24.6771 2.98378 24.6823 2.98307C24.7162 3.02877 24.7637 3.0626 24.818 3.07974L24.8162 3.07796C24.8175 3.08621 24.8218 3.09369 24.8283 3.09897C24.8348 3.10425 24.843 3.10698 24.8513 3.10664L24.8539 3.10841C24.8638 3.12559 24.8772 3.1405 24.8932 3.15218C24.9092 3.16386 24.9275 3.17206 24.9469 3.17624L24.9451 3.17447C24.9464 3.18272 24.9507 3.19019 24.9572 3.19539C24.9638 3.20058 24.972 3.20312 24.9804 3.2025L24.9839 3.20459C24.9885 3.21611 24.9963 3.22605 25.0065 3.23322C25.0166 3.24039 25.0286 3.24449 25.0409 3.24503L25.0384 3.24374C25.0441 3.25859 25.0537 3.27165 25.0662 3.28159C25.0786 3.29152 25.0935 3.29798 25.1093 3.30029C25.261 3.42531 25.4128 3.55027 25.5645 3.67518C25.9433 3.98628 26.2987 4.32332 26.6535 4.66083C26.6586 4.67491 26.6669 4.68764 26.6777 4.69808C26.6884 4.70851 26.7014 4.71637 26.7156 4.72109C26.7182 4.72908 26.7229 4.73625 26.7291 4.7419C26.7353 4.74755 26.7429 4.75148 26.7511 4.75331C26.7518 4.76162 26.7554 4.76942 26.7613 4.77532C26.7672 4.78122 26.775 4.78484 26.7833 4.78553C26.7842 4.79378 26.7879 4.80147 26.7937 4.80734C26.7996 4.8132 26.8073 4.81688 26.8155 4.81775C26.8158 4.82629 26.8191 4.83447 26.8248 4.84085C26.8304 4.84724 26.8382 4.85144 26.8466 4.85271C27.0812 5.13046 27.3349 5.39113 27.5671 5.67145C28.346 6.61183 29.0038 7.6289 29.5236 8.73457C29.5415 8.77292 29.5527 8.81513 29.5866 8.84477C29.6279 8.97698 29.6836 9.10427 29.7527 9.22434L29.7541 9.22885C29.7606 9.27847 29.7744 9.32551 29.8118 9.36096C29.8107 9.37802 29.8133 9.39512 29.8195 9.41106C29.8256 9.42701 29.8352 9.44141 29.8476 9.45327V9.45601C29.8543 9.51312 29.8766 9.5673 29.912 9.6126L29.9136 9.61744C29.9301 9.70846 29.9629 9.79577 30.0103 9.87521C30.0245 9.96625 30.056 10.0537 30.1031 10.133V10.1341C30.1276 10.27 30.1703 10.402 30.23 10.5266C30.228 10.5308 30.2274 10.5357 30.2285 10.5403C30.2295 10.5449 30.2321 10.5491 30.2358 10.552C30.2325 10.5689 30.2335 10.5863 30.2388 10.6027C30.244 10.6191 30.2533 10.6339 30.2658 10.6458C30.3326 10.9163 30.4024 11.186 30.4659 11.4571C30.6547 12.2638 30.7576 13.0817 30.791 13.9096C30.8282 14.8355 30.7531 15.754 30.6286 16.6697C30.5859 16.9827 30.5364 17.295 30.4902 17.6077L30.483 17.6161L30.4876 17.626C30.4514 17.6768 30.4554 17.7358 30.4533 17.7934C30.3843 18.0283 30.3313 18.2675 30.2946 18.5095L30.2882 18.5166L30.2924 18.5252C30.234 18.6347 30.2192 18.7575 30.1891 18.8748C30.1408 19.065 30.0681 19.249 30.037 19.444L30.0302 19.4507L30.034 19.4596C29.9458 19.6518 29.8923 19.8559 29.8268 20.0557C29.8235 20.0668 29.8205 20.0781 29.8173 20.0892C29.7823 20.1237 29.7776 20.1688 29.7742 20.2142L29.7771 20.2113C29.7357 20.2344 29.7491 20.2758 29.7428 20.3112C29.6479 20.5367 29.5548 20.7644 29.4577 20.9896C29.1493 21.7076 28.7802 22.3978 28.3543 23.0529C28.334 23.084 28.3183 23.1174 28.3006 23.1505C28.284 23.161 28.2698 23.1748 28.2589 23.1911C28.248 23.2074 28.2406 23.2258 28.2371 23.2451L28.2358 23.2472C28.2245 23.2525 28.2148 23.2609 28.208 23.2714C28.2012 23.282 28.1976 23.2943 28.1975 23.3068L28.1999 23.3044C28.1916 23.3062 28.1842 23.3109 28.179 23.3176C28.1737 23.3243 28.171 23.3326 28.1712 23.3411V23.3423C28.1597 23.3476 28.15 23.356 28.1431 23.3667C28.1362 23.3773 28.1324 23.3897 28.1322 23.4023L28.1337 23.4006C28.0742 23.4519 28.0278 23.5166 27.9982 23.5894C27.9604 23.6092 27.9438 23.6442 27.9315 23.6824C27.9317 23.683 27.932 23.6836 27.9323 23.6841C27.9242 23.6862 27.9169 23.6909 27.9118 23.6975C27.9066 23.7041 27.9038 23.7123 27.9038 23.7207L27.9061 23.7189C27.8974 23.7209 27.8896 23.7257 27.8841 23.7326C27.8785 23.7396 27.8755 23.7482 27.8754 23.7571L27.878 23.7547C27.8696 23.7565 27.862 23.7613 27.8567 23.768C27.8513 23.7748 27.8484 23.7833 27.8485 23.7919C27.8308 23.801 27.8153 23.814 27.8033 23.8299C27.7912 23.8458 27.7828 23.8642 27.7788 23.8837L27.7835 23.8907L27.7796 23.8833C27.7622 23.8925 27.7469 23.9053 27.7347 23.9208C27.7226 23.9363 27.7138 23.9542 27.709 23.9733L27.7106 23.9749C27.7021 23.9767 27.6943 23.9814 27.6887 23.9881C27.683 23.9948 27.6798 24.0032 27.6795 24.012L27.6805 24.0097C27.6352 24.0414 27.6004 24.0858 27.5805 24.1373L27.5838 24.1365C27.5746 24.1389 27.5662 24.1438 27.5595 24.1506C27.5527 24.1574 27.548 24.1659 27.5457 24.1752C27.5426 24.1755 27.5395 24.1764 27.5368 24.1778C27.534 24.1793 27.5316 24.1812 27.5296 24.1836C27.5276 24.186 27.5261 24.1888 27.5252 24.1918C27.5243 24.1947 27.5239 24.1979 27.5242 24.201C27.5094 24.2084 27.4963 24.2188 27.4858 24.2316C27.4753 24.2445 27.4677 24.2594 27.4633 24.2754C27.4516 24.2799 27.4414 24.2876 27.4338 24.2976C27.4262 24.3076 27.4216 24.3196 27.4205 24.3321L27.4234 24.3297C27.4146 24.3311 27.4066 24.3354 27.4006 24.3419C27.3945 24.3484 27.3909 24.3568 27.3902 24.3656L27.3984 24.368L27.391 24.3642C27.334 24.4041 27.2872 24.4569 27.2542 24.5182C27.2444 24.5293 27.2346 24.5406 27.2249 24.5518L27.1945 24.5862C27.1461 24.6256 27.0947 24.6611 27.0796 24.727L27.0438 24.7639C27.0226 24.7606 27.0142 24.7729 27.0116 24.7913C27 24.7947 26.9896 24.8013 26.9815 24.8102C26.9734 24.8191 26.9678 24.83 26.9654 24.8418V24.843C26.9574 24.8442 26.9501 24.848 26.9445 24.8538C26.939 24.8597 26.9355 24.8672 26.9347 24.8752C26.9264 24.8765 26.9187 24.8804 26.9129 24.8865C26.9071 24.8926 26.9034 24.9005 26.9025 24.9089L26.913 24.9169L26.9035 24.9079C26.8951 24.9092 26.8873 24.9133 26.8815 24.9195C26.8756 24.9257 26.872 24.9337 26.8713 24.9422L26.8792 24.9482L26.8727 24.9409C26.8641 24.942 26.8562 24.946 26.8501 24.9522C26.8441 24.9583 26.8402 24.9663 26.8392 24.9749L26.841 24.9731C26.8324 24.9747 26.8245 24.979 26.8187 24.9855C26.8128 24.9921 26.8093 25.0003 26.8088 25.0091L26.8113 25.006C26.7993 25.0076 26.788 25.0128 26.7788 25.0208C26.7697 25.0288 26.7631 25.0394 26.7599 25.0511L26.7566 25.0545C26.7448 25.0577 26.7343 25.0641 26.7261 25.0732C26.718 25.0822 26.7127 25.0934 26.7108 25.1054L26.714 25.103C26.7052 25.104 26.697 25.1079 26.6907 25.1142C26.6844 25.1205 26.6805 25.1288 26.6796 25.1376L26.6818 25.1352C26.673 25.1362 26.6647 25.1401 26.6584 25.1464C26.6522 25.1527 26.6482 25.161 26.6473 25.1698L26.6496 25.1674C26.6408 25.1684 26.6325 25.1723 26.6262 25.1786C26.6199 25.1848 26.6159 25.1931 26.615 25.2019L26.6172 25.1995C26.6084 25.2005 26.6002 25.2044 26.5939 25.2107C26.5877 25.217 26.5837 25.2252 26.5827 25.234L26.5848 25.2317C26.576 25.2327 26.5679 25.2368 26.5617 25.2431C26.5555 25.2494 26.5517 25.2577 26.5508 25.2665L26.5529 25.2641C26.5442 25.2648 26.5359 25.2685 26.5295 25.2745C26.5231 25.2805 26.519 25.2886 26.5178 25.2973L26.5194 25.2955C26.5108 25.2964 26.5027 25.3003 26.4965 25.3064C26.4902 25.3125 26.4863 25.3205 26.4853 25.3292L26.4867 25.3272C26.4781 25.3282 26.47 25.332 26.4638 25.338C26.4576 25.3441 26.4536 25.352 26.4524 25.3606L26.4604 25.3648L26.4537 25.359C26.4453 25.3599 26.4373 25.3635 26.4312 25.3694C26.425 25.3752 26.4209 25.3828 26.4195 25.3912C26.4195 25.3912 26.4195 25.389 26.4195 25.3891C26.4073 25.3911 26.3958 25.3965 26.3864 25.4047C26.3771 25.4129 26.3702 25.4236 26.3667 25.4355C26.3587 25.4366 26.3513 25.4402 26.3456 25.4457C26.3398 25.4513 26.3359 25.4585 26.3345 25.4664C26.2787 25.4945 26.232 25.5378 26.1998 25.5913L26.2024 25.5902C26.1934 25.5908 26.1849 25.5946 26.1783 25.6008C26.1718 25.607 26.1676 25.6152 26.1664 25.6242L26.169 25.6214C26.1602 25.622 26.1518 25.6254 26.1452 25.6313C26.1386 25.6371 26.1341 25.645 26.1324 25.6537L26.1345 25.6511C26.1258 25.6516 26.1174 25.655 26.1109 25.6609C26.1043 25.6667 26.0999 25.6746 26.0984 25.6833L26.0997 25.6815C26.0913 25.6823 26.0833 25.6859 26.0772 25.6917C26.071 25.6976 26.0671 25.7053 26.0659 25.7137H26.0744L26.0664 25.7113C26.0138 25.73 25.9696 25.7668 25.9418 25.8152L25.9446 25.8136C25.9356 25.8142 25.927 25.8178 25.9203 25.8238C25.9135 25.8298 25.909 25.8379 25.9074 25.8468L25.9101 25.8438C25.9012 25.8445 25.8928 25.8481 25.8862 25.8541C25.8796 25.8601 25.8751 25.8682 25.8735 25.8769L25.8764 25.8731C25.8636 25.8744 25.8514 25.8792 25.8411 25.8869C25.8309 25.8947 25.8229 25.9051 25.8181 25.9171C25.5247 26.1387 25.2397 26.3717 24.9364 26.5802C24.633 26.7886 24.3211 26.9879 24.0028 27.174C23.9722 27.1921 23.9306 27.1985 23.9198 27.2415C23.8043 27.2823 23.698 27.3419 23.59 27.3989C22.9633 27.7302 22.3147 28.0085 21.6356 28.2148C21.566 28.2359 21.4877 28.2365 21.4162 28.2977L21.5462 28.4184C22.1848 29.0151 22.8239 29.6116 23.4634 30.2078C23.7202 30.4466 23.9689 30.6942 24.2385 30.9191C24.479 31.1785 24.7509 31.4048 25.0061 31.6487C25.1028 31.7407 25.1921 31.8409 25.3045 31.9149C25.3096 31.9296 25.3181 31.943 25.3293 31.9539C25.3405 31.9647 25.3541 31.9729 25.369 31.9776L25.3706 31.9792C25.3707 31.9831 25.3717 31.9869 25.3733 31.9904C25.375 31.994 25.3773 31.9972 25.3802 31.9998C25.3831 32.0024 25.3865 32.0044 25.3902 32.0057C25.3939 32.007 25.3978 32.0076 25.4017 32.0074L25.4052 32.0101L25.4357 32.0746L25.4004 32.082C25.3482 32.0737 25.295 32.0741 25.243 32.0833C25.1459 32.0731 25.048 32.0731 24.9509 32.0833C24.9135 32.081 24.8763 32.0768 24.8391 32.0768C23.5388 32.0768 22.2386 32.0768 20.9384 32.0768C20.9011 32.0768 20.8638 32.0807 20.8266 32.0828C20.7839 32.0803 20.7413 32.0758 20.6986 32.0758C19.334 32.0758 17.9693 32.0758 16.6046 32.0758C16.5605 32.0766 16.5178 32.0808 16.4752 32.0831Z" fill="white"/>
</svg>
